<svg width="625" height="658" viewBox="0 0 625 658" fill="none" xmlns="http://www.w3.org/2000/svg">
<path d="M0.708096 645.05C36.4852 664.208 103.208 664.126 180.208 604.626C286.197 522.726 270.708 471.549 270.708 358.126C270.708 244.704 399.208 243.626 496.708 229.626C577.291 218.055 553.763 85.3965 592.708 0.626205" stroke="white"/>
<path d="M0.708096 645.626C36.4852 664.784 113.208 664.126 190.208 604.626C296.197 522.726 280.708 471.549 280.708 358.126C280.708 244.704 409.208 243.626 506.708 229.626C587.291 218.055 563.763 85.3965 602.708 0.626205" stroke="white"/>
<path d="M0.708096 645.126C36.4852 664.284 123.208 664.126 200.208 604.626C306.197 522.726 290.708 471.549 290.708 358.126C290.708 244.704 419.208 243.626 516.708 229.626C597.291 218.055 573.763 85.3965 612.708 0.626205" stroke="white" stroke-width="2"/>
<path d="M0.708096 645.126C36.4852 664.284 133.208 664.126 210.208 604.626C316.197 522.726 300.708 471.549 300.708 358.126C300.708 244.704 429.208 243.626 526.708 229.626C607.291 218.055 583.763 85.3965 622.708 0.626205" stroke="white" stroke-width="3"/>
</svg>
